<svg id="SvgjsSvg1006" width="100%" height="100%" xmlns="http://www.w3.org/2000/svg" version="1.1" xmlns:xlink="http://www.w3.org/1999/xlink" xmlns:svgjs="http://svgjs.com/svgjs" viewBox="-0.15 -0.15 21.3 19.3"><defs id="SvgjsDefs1007"></defs><style id="SvgjsStyle1008">line { stroke: #444; stroke-dasharray: 0.075; stroke-width: 0.075; }
.obstacle { fill: purple; }
.blank { fill: white; }

circle { stroke: none; }
.magnet { fill: red; stroke: orange; stroke-opacity: 0.75; stroke-width: 0.3; }
.ball { fill: gray; stroke: #c0c0c0; stroke-opacity: 0.75; stroke-width: 0.3; }

.magnet, .ball {
  animation: pulse 2s linear infinite;
}
@keyframes pulse {
  0% { stroke-opacity: 0.9; }
  50% { stroke-opacity: 0.4; }
  100% { stroke-opacity: 0.9; }
}

.colorMagnet0 { fill: #c8e8f3; }
.colorMagnet1 { fill: #94bdce; }
.colorMagnet2 { fill: #7b9eb2; }
.colorMagnet3 { fill: #5e8899; }
.colorMagnet4 { fill: #54707c; }
text { font-size: 0.6px; }</style><rect id="SvgjsRect1009" width="1" height="1" x="0" y="0" class="blank"></rect><rect id="SvgjsRect1010" width="1" height="1" x="0" y="1" class="blank"></rect><rect id="SvgjsRect1011" width="1" height="1" x="0" y="2" class="blank"></rect><rect id="SvgjsRect1012" width="1" height="1" x="0" y="3" class="blank"></rect><rect id="SvgjsRect1013" width="1" height="1" x="0" y="4" class="blank"></rect><rect id="SvgjsRect1014" width="1" height="1" x="0" y="5" class="blank"></rect><rect id="SvgjsRect1015" width="1" height="1" x="0" y="6" class="blank"></rect><rect id="SvgjsRect1016" width="1" height="1" x="0" y="7" class="blank"></rect><rect id="SvgjsRect1017" width="1" height="1" x="0" y="8" class="blank"></rect><rect id="SvgjsRect1018" width="1" height="1" x="0" y="9" class="blank"></rect><rect id="SvgjsRect1019" width="1" height="1" x="0" y="10" class="blank"></rect><rect id="SvgjsRect1020" width="1" height="1" x="0" y="11" class="blank"></rect><rect id="SvgjsRect1021" width="1" height="1" x="0" y="12" class="blank"></rect><rect id="SvgjsRect1022" width="1" height="1" x="0" y="13" class="blank"></rect><rect id="SvgjsRect1023" width="1" height="1" x="0" y="14" class="blank"></rect><rect id="SvgjsRect1024" width="1" height="1" x="0" y="15" class="blank"></rect><rect id="SvgjsRect1025" width="1" height="1" x="0" y="16" class="blank"></rect><rect id="SvgjsRect1026" width="1" height="1" x="0" y="17" class="blank"></rect><rect id="SvgjsRect1027" width="1" height="1" x="0" y="18" class="blank"></rect><rect id="SvgjsRect1028" width="1" height="1" x="1" y="0" class="blank"></rect><rect id="SvgjsRect1029" width="1" height="1" x="1" y="1" class="obstacle"></rect><rect id="SvgjsRect1030" width="1" height="1" x="1" y="2" class="obstacle"></rect><rect id="SvgjsRect1031" width="1" height="1" x="1" y="3" class="obstacle"></rect><rect id="SvgjsRect1032" width="1" height="1" x="1" y="4" class="obstacle"></rect><rect id="SvgjsRect1033" width="1" height="1" x="1" y="5" class="obstacle"></rect><rect id="SvgjsRect1034" width="1" height="1" x="1" y="6" class="obstacle"></rect><rect id="SvgjsRect1035" width="1" height="1" x="1" y="7" class="obstacle"></rect><rect id="SvgjsRect1036" width="1" height="1" x="1" y="8" class="obstacle"></rect><rect id="SvgjsRect1037" width="1" height="1" x="1" y="9" class="obstacle"></rect><rect id="SvgjsRect1038" width="1" height="1" x="1" y="10" class="obstacle"></rect><rect id="SvgjsRect1039" width="1" height="1" x="1" y="11" class="obstacle"></rect><rect id="SvgjsRect1040" width="1" height="1" x="1" y="12" class="obstacle"></rect><rect id="SvgjsRect1041" width="1" height="1" x="1" y="13" class="obstacle"></rect><rect id="SvgjsRect1042" width="1" height="1" x="1" y="14" class="obstacle"></rect><rect id="SvgjsRect1043" width="1" height="1" x="1" y="15" class="obstacle"></rect><rect id="SvgjsRect1044" width="1" height="1" x="1" y="16" class="blank"></rect><rect id="SvgjsRect1045" width="1" height="1" x="1" y="17" class="blank"></rect><rect id="SvgjsRect1046" width="1" height="1" x="1" y="18" class="blank"></rect><rect id="SvgjsRect1047" width="1" height="1" x="2" y="0" class="blank"></rect><rect id="SvgjsRect1048" width="1" height="1" x="2" y="1" class="obstacle"></rect><rect id="SvgjsRect1049" width="1" height="1" x="2" y="2" class="blank"></rect><rect id="SvgjsRect1050" width="1" height="1" x="2" y="3" class="blank"></rect><rect id="SvgjsRect1051" width="1" height="1" x="2" y="4" class="blank"></rect><rect id="SvgjsRect1052" width="1" height="1" x="2" y="5" class="blank"></rect><rect id="SvgjsRect1053" width="1" height="1" x="2" y="6" class="blank"></rect><rect id="SvgjsRect1054" width="1" height="1" x="2" y="7" class="blank"></rect><rect id="SvgjsRect1055" width="1" height="1" x="2" y="8" class="blank"></rect><rect id="SvgjsRect1056" width="1" height="1" x="2" y="9" class="blank"></rect><rect id="SvgjsRect1057" width="1" height="1" x="2" y="10" class="blank"></rect><rect id="SvgjsRect1058" width="1" height="1" x="2" y="11" class="blank"></rect><rect id="SvgjsRect1059" width="1" height="1" x="2" y="12" class="blank"></rect><rect id="SvgjsRect1060" width="1" height="1" x="2" y="13" class="blank"></rect><rect id="SvgjsRect1061" width="1" height="1" x="2" y="14" class="blank"></rect><rect id="SvgjsRect1062" width="1" height="1" x="2" y="15" class="obstacle"></rect><rect id="SvgjsRect1063" width="1" height="1" x="2" y="16" class="blank"></rect><rect id="SvgjsRect1064" width="1" height="1" x="2" y="17" class="blank"></rect><rect id="SvgjsRect1065" width="1" height="1" x="2" y="18" class="blank"></rect><rect id="SvgjsRect1066" width="1" height="1" x="3" y="0" class="blank"></rect><rect id="SvgjsRect1067" width="1" height="1" x="3" y="1" class="obstacle"></rect><rect id="SvgjsRect1068" width="1" height="1" x="3" y="2" class="blank"></rect><rect id="SvgjsRect1069" width="1" height="1" x="3" y="3" class="obstacle"></rect><rect id="SvgjsRect1070" width="1" height="1" x="3" y="4" class="obstacle"></rect><rect id="SvgjsRect1071" width="1" height="1" x="3" y="5" class="obstacle"></rect><rect id="SvgjsRect1072" width="1" height="1" x="3" y="6" class="obstacle"></rect><rect id="SvgjsRect1073" width="1" height="1" x="3" y="7" class="obstacle"></rect><rect id="SvgjsRect1074" width="1" height="1" x="3" y="8" class="obstacle"></rect><rect id="SvgjsRect1075" width="1" height="1" x="3" y="9" class="obstacle"></rect><rect id="SvgjsRect1076" width="1" height="1" x="3" y="10" class="obstacle"></rect><rect id="SvgjsRect1077" width="1" height="1" x="3" y="11" class="blank"></rect><rect id="SvgjsRect1078" width="1" height="1" x="3" y="12" class="blank"></rect><rect id="SvgjsRect1079" width="1" height="1" x="3" y="13" class="blank"></rect><rect id="SvgjsRect1080" width="1" height="1" x="3" y="14" class="blank"></rect><rect id="SvgjsRect1081" width="1" height="1" x="3" y="15" class="obstacle"></rect><rect id="SvgjsRect1082" width="1" height="1" x="3" y="16" class="blank"></rect><rect id="SvgjsRect1083" width="1" height="1" x="3" y="17" class="blank"></rect><rect id="SvgjsRect1084" width="1" height="1" x="3" y="18" class="blank"></rect><rect id="SvgjsRect1085" width="1" height="1" x="4" y="0" class="blank"></rect><rect id="SvgjsRect1086" width="1" height="1" x="4" y="1" class="obstacle"></rect><rect id="SvgjsRect1087" width="1" height="1" x="4" y="2" class="blank"></rect><rect id="SvgjsRect1088" width="1" height="1" x="4" y="3" class="obstacle"></rect><rect id="SvgjsRect1089" width="1" height="1" x="4" y="4" class="blank"></rect><rect id="SvgjsRect1090" width="1" height="1" x="4" y="5" class="blank"></rect><rect id="SvgjsRect1091" width="1" height="1" x="4" y="6" class="blank"></rect><rect id="SvgjsRect1092" width="1" height="1" x="4" y="7" class="blank"></rect><rect id="SvgjsRect1093" width="1" height="1" x="4" y="8" class="blank"></rect><rect id="SvgjsRect1094" width="1" height="1" x="4" y="9" class="blank"></rect><rect id="SvgjsRect1095" width="1" height="1" x="4" y="10" class="blank"></rect><rect id="SvgjsRect1096" width="1" height="1" x="4" y="11" class="blank"></rect><rect id="SvgjsRect1097" width="1" height="1" x="4" y="12" class="blank"></rect><rect id="SvgjsRect1098" width="1" height="1" x="4" y="13" class="blank"></rect><rect id="SvgjsRect1099" width="1" height="1" x="4" y="14" class="blank"></rect><rect id="SvgjsRect1100" width="1" height="1" x="4" y="15" class="obstacle"></rect><rect id="SvgjsRect1101" width="1" height="1" x="4" y="16" class="blank"></rect><rect id="SvgjsRect1102" width="1" height="1" x="4" y="17" class="blank"></rect><rect id="SvgjsRect1103" width="1" height="1" x="4" y="18" class="blank"></rect><rect id="SvgjsRect1104" width="1" height="1" x="5" y="0" class="blank"></rect><rect id="SvgjsRect1105" width="1" height="1" x="5" y="1" class="obstacle"></rect><rect id="SvgjsRect1106" width="1" height="1" x="5" y="2" class="blank"></rect><rect id="SvgjsRect1107" width="1" height="1" x="5" y="3" class="obstacle"></rect><rect id="SvgjsRect1108" width="1" height="1" x="5" y="4" class="blank"></rect><rect id="SvgjsRect1109" width="1" height="1" x="5" y="5" class="obstacle"></rect><rect id="SvgjsRect1110" width="1" height="1" x="5" y="6" class="obstacle"></rect><rect id="SvgjsRect1111" width="1" height="1" x="5" y="7" class="obstacle"></rect><rect id="SvgjsRect1112" width="1" height="1" x="5" y="8" class="obstacle"></rect><rect id="SvgjsRect1113" width="1" height="1" x="5" y="9" class="obstacle"></rect><rect id="SvgjsRect1114" width="1" height="1" x="5" y="10" class="obstacle"></rect><rect id="SvgjsRect1115" width="1" height="1" x="5" y="11" class="obstacle"></rect><rect id="SvgjsRect1116" width="1" height="1" x="5" y="12" class="obstacle"></rect><rect id="SvgjsRect1117" width="1" height="1" x="5" y="13" class="obstacle"></rect><rect id="SvgjsRect1118" width="1" height="1" x="5" y="14" class="obstacle"></rect><rect id="SvgjsRect1119" width="1" height="1" x="5" y="15" class="obstacle"></rect><rect id="SvgjsRect1120" width="1" height="1" x="5" y="16" class="blank"></rect><rect id="SvgjsRect1121" width="1" height="1" x="5" y="17" class="blank"></rect><rect id="SvgjsRect1122" width="1" height="1" x="5" y="18" class="blank"></rect><rect id="SvgjsRect1123" width="1" height="1" x="6" y="0" class="blank"></rect><rect id="SvgjsRect1124" width="1" height="1" x="6" y="1" class="obstacle"></rect><rect id="SvgjsRect1125" width="1" height="1" x="6" y="2" class="blank"></rect><rect id="SvgjsRect1126" width="1" height="1" x="6" y="3" class="obstacle"></rect><rect id="SvgjsRect1127" width="1" height="1" x="6" y="4" class="blank"></rect><rect id="SvgjsRect1128" width="1" height="1" x="6" y="5" class="obstacle"></rect><rect id="SvgjsRect1129" width="1" height="1" x="6" y="6" class="blank"></rect><rect id="SvgjsRect1130" width="1" height="1" x="6" y="7" class="blank"></rect><rect id="SvgjsRect1131" width="1" height="1" x="6" y="8" class="blank"></rect><rect id="SvgjsRect1132" width="1" height="1" x="6" y="9" class="blank"></rect><rect id="SvgjsRect1133" width="1" height="1" x="6" y="10" class="blank"></rect><rect id="SvgjsRect1134" width="1" height="1" x="6" y="11" class="blank"></rect><rect id="SvgjsRect1135" width="1" height="1" x="6" y="12" class="blank"></rect><rect id="SvgjsRect1136" width="1" height="1" x="6" y="13" class="blank"></rect><rect id="SvgjsRect1137" width="1" height="1" x="6" y="14" class="blank"></rect><rect id="SvgjsRect1138" width="1" height="1" x="6" y="15" class="obstacle"></rect><rect id="SvgjsRect1139" width="1" height="1" x="6" y="16" class="blank"></rect><rect id="SvgjsRect1140" width="1" height="1" x="6" y="17" class="blank"></rect><rect id="SvgjsRect1141" width="1" height="1" x="6" y="18" class="blank"></rect><rect id="SvgjsRect1142" width="1" height="1" x="7" y="0" class="blank"></rect><rect id="SvgjsRect1143" width="1" height="1" x="7" y="1" class="obstacle"></rect><rect id="SvgjsRect1144" width="1" height="1" x="7" y="2" class="blank"></rect><rect id="SvgjsRect1145" width="1" height="1" x="7" y="3" class="obstacle"></rect><rect id="SvgjsRect1146" width="1" height="1" x="7" y="4" class="blank"></rect><rect id="SvgjsRect1147" width="1" height="1" x="7" y="5" class="obstacle"></rect><rect id="SvgjsRect1148" width="1" height="1" x="7" y="6" class="blank"></rect><rect id="SvgjsRect1149" width="1" height="1" x="7" y="7" class="obstacle"></rect><rect id="SvgjsRect1150" width="1" height="1" x="7" y="8" class="obstacle"></rect><rect id="SvgjsRect1151" width="1" height="1" x="7" y="9" class="obstacle"></rect><rect id="SvgjsRect1152" width="1" height="1" x="7" y="10" class="obstacle"></rect><rect id="SvgjsRect1153" width="1" height="1" x="7" y="11" class="blank"></rect><rect id="SvgjsRect1154" width="1" height="1" x="7" y="12" class="blank"></rect><rect id="SvgjsRect1155" width="1" height="1" x="7" y="13" class="blank"></rect><rect id="SvgjsRect1156" width="1" height="1" x="7" y="14" class="blank"></rect><rect id="SvgjsRect1157" width="1" height="1" x="7" y="15" class="obstacle"></rect><rect id="SvgjsRect1158" width="1" height="1" x="7" y="16" class="blank"></rect><rect id="SvgjsRect1159" width="1" height="1" x="7" y="17" class="blank"></rect><rect id="SvgjsRect1160" width="1" height="1" x="7" y="18" class="blank"></rect><rect id="SvgjsRect1161" width="1" height="1" x="8" y="0" class="blank"></rect><rect id="SvgjsRect1162" width="1" height="1" x="8" y="1" class="obstacle"></rect><rect id="SvgjsRect1163" width="1" height="1" x="8" y="2" class="blank"></rect><rect id="SvgjsRect1164" width="1" height="1" x="8" y="3" class="obstacle"></rect><rect id="SvgjsRect1165" width="1" height="1" x="8" y="4" class="blank"></rect><rect id="SvgjsRect1166" width="1" height="1" x="8" y="5" class="obstacle"></rect><rect id="SvgjsRect1167" width="1" height="1" x="8" y="6" class="blank"></rect><rect id="SvgjsRect1168" width="1" height="1" x="8" y="7" class="obstacle"></rect><rect id="SvgjsRect1169" width="1" height="1" x="8" y="8" class="blank"></rect><rect id="SvgjsRect1170" width="1" height="1" x="8" y="9" class="obstacle"></rect><rect id="SvgjsRect1171" width="1" height="1" x="8" y="10" class="obstacle"></rect><rect id="SvgjsRect1172" width="1" height="1" x="8" y="11" class="blank"></rect><rect id="SvgjsRect1173" width="1" height="1" x="8" y="12" class="blank"></rect><rect id="SvgjsRect1174" width="1" height="1" x="8" y="13" class="blank"></rect><rect id="SvgjsRect1175" width="1" height="1" x="8" y="14" class="blank"></rect><rect id="SvgjsRect1176" width="1" height="1" x="8" y="15" class="obstacle"></rect><rect id="SvgjsRect1177" width="1" height="1" x="8" y="16" class="blank"></rect><rect id="SvgjsRect1178" width="1" height="1" x="8" y="17" class="obstacle"></rect><rect id="SvgjsRect1179" width="1" height="1" x="8" y="18" class="blank"></rect><rect id="SvgjsRect1180" width="1" height="1" x="9" y="0" class="blank"></rect><rect id="SvgjsRect1181" width="1" height="1" x="9" y="1" class="obstacle"></rect><rect id="SvgjsRect1182" width="1" height="1" x="9" y="2" class="blank"></rect><rect id="SvgjsRect1183" width="1" height="1" x="9" y="3" class="obstacle"></rect><rect id="SvgjsRect1184" width="1" height="1" x="9" y="4" class="blank"></rect><rect id="SvgjsRect1185" width="1" height="1" x="9" y="5" class="obstacle"></rect><rect id="SvgjsRect1186" width="1" height="1" x="9" y="6" class="blank"></rect><rect id="SvgjsRect1187" width="1" height="1" x="9" y="7" class="blank"></rect><rect id="SvgjsRect1188" width="1" height="1" x="9" y="8" class="blank"></rect><rect id="SvgjsRect1189" width="1" height="1" x="9" y="9" class="obstacle"></rect><rect id="SvgjsRect1190" width="1" height="1" x="9" y="10" class="blank"></rect><rect id="SvgjsRect1191" width="1" height="1" x="9" y="11" class="blank"></rect><rect id="SvgjsRect1192" width="1" height="1" x="9" y="12" class="blank"></rect><rect id="SvgjsRect1193" width="1" height="1" x="9" y="13" class="blank"></rect><rect id="SvgjsRect1194" width="1" height="1" x="9" y="14" class="blank"></rect><rect id="SvgjsRect1195" width="1" height="1" x="9" y="15" class="obstacle"></rect><rect id="SvgjsRect1196" width="1" height="1" x="9" y="16" class="blank"></rect><rect id="SvgjsRect1197" width="1" height="1" x="9" y="17" class="obstacle"></rect><rect id="SvgjsRect1198" width="1" height="1" x="9" y="18" class="blank"></rect><rect id="SvgjsRect1199" width="1" height="1" x="10" y="0" class="blank"></rect><rect id="SvgjsRect1200" width="1" height="1" x="10" y="1" class="obstacle"></rect><rect id="SvgjsRect1201" width="1" height="1" x="10" y="2" class="blank"></rect><rect id="SvgjsRect1202" width="1" height="1" x="10" y="3" class="obstacle"></rect><rect id="SvgjsRect1203" width="1" height="1" x="10" y="4" class="blank"></rect><rect id="SvgjsRect1204" width="1" height="1" x="10" y="5" class="obstacle"></rect><rect id="SvgjsRect1205" width="1" height="1" x="10" y="6" class="obstacle"></rect><rect id="SvgjsRect1206" width="1" height="1" x="10" y="7" class="obstacle"></rect><rect id="SvgjsRect1207" width="1" height="1" x="10" y="8" class="obstacle"></rect><rect id="SvgjsRect1208" width="1" height="1" x="10" y="9" class="obstacle"></rect><rect id="SvgjsRect1209" width="1" height="1" x="10" y="10" class="obstacle"></rect><rect id="SvgjsRect1210" width="1" height="1" x="10" y="11" class="obstacle"></rect><rect id="SvgjsRect1211" width="1" height="1" x="10" y="12" class="obstacle"></rect><rect id="SvgjsRect1212" width="1" height="1" x="10" y="13" class="obstacle"></rect><rect id="SvgjsRect1213" width="1" height="1" x="10" y="14" class="blank"></rect><rect id="SvgjsRect1214" width="1" height="1" x="10" y="15" class="obstacle"></rect><rect id="SvgjsRect1215" width="1" height="1" x="10" y="16" class="blank"></rect><rect id="SvgjsRect1216" width="1" height="1" x="10" y="17" class="obstacle"></rect><rect id="SvgjsRect1217" width="1" height="1" x="10" y="18" class="blank"></rect><rect id="SvgjsRect1218" width="1" height="1" x="11" y="0" class="blank"></rect><rect id="SvgjsRect1219" width="1" height="1" x="11" y="1" class="obstacle"></rect><rect id="SvgjsRect1220" width="1" height="1" x="11" y="2" class="blank"></rect><rect id="SvgjsRect1221" width="1" height="1" x="11" y="3" class="obstacle"></rect><rect id="SvgjsRect1222" width="1" height="1" x="11" y="4" class="blank"></rect><rect id="SvgjsRect1223" width="1" height="1" x="11" y="5" class="blank"></rect><rect id="SvgjsRect1224" width="1" height="1" x="11" y="6" class="blank"></rect><rect id="SvgjsRect1225" width="1" height="1" x="11" y="7" class="blank"></rect><rect id="SvgjsRect1226" width="1" height="1" x="11" y="8" class="blank"></rect><rect id="SvgjsRect1227" width="1" height="1" x="11" y="9" class="obstacle"></rect><rect id="SvgjsRect1228" width="1" height="1" x="11" y="10" class="blank"></rect><rect id="SvgjsRect1229" width="1" height="1" x="11" y="11" class="blank"></rect><rect id="SvgjsRect1230" width="1" height="1" x="11" y="12" class="blank"></rect><rect id="SvgjsRect1231" width="1" height="1" x="11" y="13" class="obstacle"></rect><rect id="SvgjsRect1232" width="1" height="1" x="11" y="14" class="blank"></rect><rect id="SvgjsRect1233" width="1" height="1" x="11" y="15" class="obstacle"></rect><rect id="SvgjsRect1234" width="1" height="1" x="11" y="16" class="blank"></rect><rect id="SvgjsRect1235" width="1" height="1" x="11" y="17" class="obstacle"></rect><rect id="SvgjsRect1236" width="1" height="1" x="11" y="18" class="blank"></rect><rect id="SvgjsRect1237" width="1" height="1" x="12" y="0" class="blank"></rect><rect id="SvgjsRect1238" width="1" height="1" x="12" y="1" class="obstacle"></rect><rect id="SvgjsRect1239" width="1" height="1" x="12" y="2" class="blank"></rect><rect id="SvgjsRect1240" width="1" height="1" x="12" y="3" class="obstacle"></rect><rect id="SvgjsRect1241" width="1" height="1" x="12" y="4" class="blank"></rect><rect id="SvgjsRect1242" width="1" height="1" x="12" y="5" class="blank"></rect><rect id="SvgjsRect1243" width="1" height="1" x="12" y="6" class="blank"></rect><rect id="SvgjsRect1244" width="1" height="1" x="12" y="7" class="blank"></rect><rect id="SvgjsRect1245" width="1" height="1" x="12" y="8" class="obstacle"></rect><rect id="SvgjsRect1246" width="1" height="1" x="12" y="9" class="obstacle"></rect><rect id="SvgjsRect1247" width="1" height="1" x="12" y="10" class="blank"></rect><rect id="SvgjsRect1248" width="1" height="1" x="12" y="11" class="obstacle"></rect><rect id="SvgjsRect1249" width="1" height="1" x="12" y="12" class="blank"></rect><rect id="SvgjsRect1250" width="1" height="1" x="12" y="13" class="obstacle"></rect><rect id="SvgjsRect1251" width="1" height="1" x="12" y="14" class="blank"></rect><rect id="SvgjsRect1252" width="1" height="1" x="12" y="15" class="obstacle"></rect><rect id="SvgjsRect1253" width="1" height="1" x="12" y="16" class="blank"></rect><rect id="SvgjsRect1254" width="1" height="1" x="12" y="17" class="obstacle"></rect><rect id="SvgjsRect1255" width="1" height="1" x="12" y="18" class="blank"></rect><rect id="SvgjsRect1256" width="1" height="1" x="13" y="0" class="blank"></rect><rect id="SvgjsRect1257" width="1" height="1" x="13" y="1" class="blank"></rect><rect id="SvgjsRect1258" width="1" height="1" x="13" y="2" class="blank"></rect><rect id="SvgjsRect1259" width="1" height="1" x="13" y="3" class="obstacle"></rect><rect id="SvgjsRect1260" width="1" height="1" x="13" y="4" class="blank"></rect><rect id="SvgjsRect1261" width="1" height="1" x="13" y="5" class="blank"></rect><rect id="SvgjsRect1262" width="1" height="1" x="13" y="6" class="blank"></rect><rect id="SvgjsRect1263" width="1" height="1" x="13" y="7" class="blank"></rect><rect id="SvgjsRect1264" width="1" height="1" x="13" y="8" class="obstacle"></rect><rect id="SvgjsRect1265" width="1" height="1" x="13" y="9" class="obstacle"></rect><rect id="SvgjsRect1266" width="1" height="1" x="13" y="10" class="obstacle"></rect><rect id="SvgjsRect1267" width="1" height="1" x="13" y="11" class="obstacle"></rect><rect id="SvgjsRect1268" width="1" height="1" x="13" y="12" class="blank"></rect><rect id="SvgjsRect1269" width="1" height="1" x="13" y="13" class="obstacle"></rect><rect id="SvgjsRect1270" width="1" height="1" x="13" y="14" class="blank"></rect><rect id="SvgjsRect1271" width="1" height="1" x="13" y="15" class="obstacle"></rect><rect id="SvgjsRect1272" width="1" height="1" x="13" y="16" class="blank"></rect><rect id="SvgjsRect1273" width="1" height="1" x="13" y="17" class="obstacle"></rect><rect id="SvgjsRect1274" width="1" height="1" x="13" y="18" class="blank"></rect><rect id="SvgjsRect1275" width="1" height="1" x="14" y="0" class="blank"></rect><rect id="SvgjsRect1276" width="1" height="1" x="14" y="1" class="blank"></rect><rect id="SvgjsRect1277" width="1" height="1" x="14" y="2" class="blank"></rect><rect id="SvgjsRect1278" width="1" height="1" x="14" y="3" class="obstacle"></rect><rect id="SvgjsRect1279" width="1" height="1" x="14" y="4" class="blank"></rect><rect id="SvgjsRect1280" width="1" height="1" x="14" y="5" class="blank"></rect><rect id="SvgjsRect1281" width="1" height="1" x="14" y="6" class="blank"></rect><rect id="SvgjsRect1282" width="1" height="1" x="14" y="7" class="blank"></rect><rect id="SvgjsRect1283" width="1" height="1" x="14" y="8" class="blank"></rect><rect id="SvgjsRect1284" width="1" height="1" x="14" y="9" class="blank"></rect><rect id="SvgjsRect1285" width="1" height="1" x="14" y="10" class="blank"></rect><rect id="SvgjsRect1286" width="1" height="1" x="14" y="11" class="blank"></rect><rect id="SvgjsRect1287" width="1" height="1" x="14" y="12" class="blank"></rect><rect id="SvgjsRect1288" width="1" height="1" x="14" y="13" class="obstacle"></rect><rect id="SvgjsRect1289" width="1" height="1" x="14" y="14" class="blank"></rect><rect id="SvgjsRect1290" width="1" height="1" x="14" y="15" class="obstacle"></rect><rect id="SvgjsRect1291" width="1" height="1" x="14" y="16" class="blank"></rect><rect id="SvgjsRect1292" width="1" height="1" x="14" y="17" class="obstacle"></rect><rect id="SvgjsRect1293" width="1" height="1" x="14" y="18" class="blank"></rect><rect id="SvgjsRect1294" width="1" height="1" x="15" y="0" class="blank"></rect><rect id="SvgjsRect1295" width="1" height="1" x="15" y="1" class="blank"></rect><rect id="SvgjsRect1296" width="1" height="1" x="15" y="2" class="blank"></rect><rect id="SvgjsRect1297" width="1" height="1" x="15" y="3" class="obstacle"></rect><rect id="SvgjsRect1298" width="1" height="1" x="15" y="4" class="obstacle"></rect><rect id="SvgjsRect1299" width="1" height="1" x="15" y="5" class="obstacle"></rect><rect id="SvgjsRect1300" width="1" height="1" x="15" y="6" class="obstacle"></rect><rect id="SvgjsRect1301" width="1" height="1" x="15" y="7" class="obstacle"></rect><rect id="SvgjsRect1302" width="1" height="1" x="15" y="8" class="obstacle"></rect><rect id="SvgjsRect1303" width="1" height="1" x="15" y="9" class="obstacle"></rect><rect id="SvgjsRect1304" width="1" height="1" x="15" y="10" class="obstacle"></rect><rect id="SvgjsRect1305" width="1" height="1" x="15" y="11" class="obstacle"></rect><rect id="SvgjsRect1306" width="1" height="1" x="15" y="12" class="obstacle"></rect><rect id="SvgjsRect1307" width="1" height="1" x="15" y="13" class="obstacle"></rect><rect id="SvgjsRect1308" width="1" height="1" x="15" y="14" class="blank"></rect><rect id="SvgjsRect1309" width="1" height="1" x="15" y="15" class="obstacle"></rect><rect id="SvgjsRect1310" width="1" height="1" x="15" y="16" class="blank"></rect><rect id="SvgjsRect1311" width="1" height="1" x="15" y="17" class="obstacle"></rect><rect id="SvgjsRect1312" width="1" height="1" x="15" y="18" class="blank"></rect><rect id="SvgjsRect1313" width="1" height="1" x="16" y="0" class="blank"></rect><rect id="SvgjsRect1314" width="1" height="1" x="16" y="1" class="blank"></rect><rect id="SvgjsRect1315" width="1" height="1" x="16" y="2" class="blank"></rect><rect id="SvgjsRect1316" width="1" height="1" x="16" y="3" class="obstacle"></rect><rect id="SvgjsRect1317" width="1" height="1" x="16" y="4" class="blank"></rect><rect id="SvgjsRect1318" width="1" height="1" x="16" y="5" class="blank"></rect><rect id="SvgjsRect1319" width="1" height="1" x="16" y="6" class="blank"></rect><rect id="SvgjsRect1320" width="1" height="1" x="16" y="7" class="blank"></rect><rect id="SvgjsRect1321" width="1" height="1" x="16" y="8" class="blank"></rect><rect id="SvgjsRect1322" width="1" height="1" x="16" y="9" class="blank"></rect><rect id="SvgjsRect1323" width="1" height="1" x="16" y="10" class="blank"></rect><rect id="SvgjsRect1324" width="1" height="1" x="16" y="11" class="blank"></rect><rect id="SvgjsRect1325" width="1" height="1" x="16" y="12" class="blank"></rect><rect id="SvgjsRect1326" width="1" height="1" x="16" y="13" class="blank"></rect><rect id="SvgjsRect1327" width="1" height="1" x="16" y="14" class="blank"></rect><rect id="SvgjsRect1328" width="1" height="1" x="16" y="15" class="obstacle"></rect><rect id="SvgjsRect1329" width="1" height="1" x="16" y="16" class="blank"></rect><rect id="SvgjsRect1330" width="1" height="1" x="16" y="17" class="obstacle"></rect><rect id="SvgjsRect1331" width="1" height="1" x="16" y="18" class="blank"></rect><rect id="SvgjsRect1332" width="1" height="1" x="17" y="0" class="blank"></rect><rect id="SvgjsRect1333" width="1" height="1" x="17" y="1" class="blank"></rect><rect id="SvgjsRect1334" width="1" height="1" x="17" y="2" class="blank"></rect><rect id="SvgjsRect1335" width="1" height="1" x="17" y="3" class="obstacle"></rect><rect id="SvgjsRect1336" width="1" height="1" x="17" y="4" class="blank"></rect><rect id="SvgjsRect1337" width="1" height="1" x="17" y="5" class="blank"></rect><rect id="SvgjsRect1338" width="1" height="1" x="17" y="6" class="blank"></rect><rect id="SvgjsRect1339" width="1" height="1" x="17" y="7" class="blank"></rect><rect id="SvgjsRect1340" width="1" height="1" x="17" y="8" class="obstacle"></rect><rect id="SvgjsRect1341" width="1" height="1" x="17" y="9" class="obstacle"></rect><rect id="SvgjsRect1342" width="1" height="1" x="17" y="10" class="obstacle"></rect><rect id="SvgjsRect1343" width="1" height="1" x="17" y="11" class="obstacle"></rect><rect id="SvgjsRect1344" width="1" height="1" x="17" y="12" class="obstacle"></rect><rect id="SvgjsRect1345" width="1" height="1" x="17" y="13" class="obstacle"></rect><rect id="SvgjsRect1346" width="1" height="1" x="17" y="14" class="obstacle"></rect><rect id="SvgjsRect1347" width="1" height="1" x="17" y="15" class="obstacle"></rect><rect id="SvgjsRect1348" width="1" height="1" x="17" y="16" class="blank"></rect><rect id="SvgjsRect1349" width="1" height="1" x="17" y="17" class="obstacle"></rect><rect id="SvgjsRect1350" width="1" height="1" x="17" y="18" class="blank"></rect><rect id="SvgjsRect1351" width="1" height="1" x="18" y="0" class="blank"></rect><rect id="SvgjsRect1352" width="1" height="1" x="18" y="1" class="blank"></rect><rect id="SvgjsRect1353" width="1" height="1" x="18" y="2" class="blank"></rect><rect id="SvgjsRect1354" width="1" height="1" x="18" y="3" class="obstacle"></rect><rect id="SvgjsRect1355" width="1" height="1" x="18" y="4" class="blank"></rect><rect id="SvgjsRect1356" width="1" height="1" x="18" y="5" class="blank"></rect><rect id="SvgjsRect1357" width="1" height="1" x="18" y="6" class="blank"></rect><rect id="SvgjsRect1358" width="1" height="1" x="18" y="7" class="blank"></rect><rect id="SvgjsRect1359" width="1" height="1" x="18" y="8" class="blank"></rect><rect id="SvgjsRect1360" width="1" height="1" x="18" y="9" class="blank"></rect><rect id="SvgjsRect1361" width="1" height="1" x="18" y="10" class="blank"></rect><rect id="SvgjsRect1362" width="1" height="1" x="18" y="11" class="blank"></rect><rect id="SvgjsRect1363" width="1" height="1" x="18" y="12" class="blank"></rect><rect id="SvgjsRect1364" width="1" height="1" x="18" y="13" class="blank"></rect><rect id="SvgjsRect1365" width="1" height="1" x="18" y="14" class="blank"></rect><rect id="SvgjsRect1366" width="1" height="1" x="18" y="15" class="blank"></rect><rect id="SvgjsRect1367" width="1" height="1" x="18" y="16" class="blank"></rect><rect id="SvgjsRect1368" width="1" height="1" x="18" y="17" class="obstacle"></rect><rect id="SvgjsRect1369" width="1" height="1" x="18" y="18" class="blank"></rect><rect id="SvgjsRect1370" width="1" height="1" x="19" y="0" class="blank"></rect><rect id="SvgjsRect1371" width="1" height="1" x="19" y="1" class="blank"></rect><rect id="SvgjsRect1372" width="1" height="1" x="19" y="2" class="blank"></rect><rect id="SvgjsRect1373" width="1" height="1" x="19" y="3" class="obstacle"></rect><rect id="SvgjsRect1374" width="1" height="1" x="19" y="4" class="obstacle"></rect><rect id="SvgjsRect1375" width="1" height="1" x="19" y="5" class="obstacle"></rect><rect id="SvgjsRect1376" width="1" height="1" x="19" y="6" class="obstacle"></rect><rect id="SvgjsRect1377" width="1" height="1" x="19" y="7" class="obstacle"></rect><rect id="SvgjsRect1378" width="1" height="1" x="19" y="8" class="obstacle"></rect><rect id="SvgjsRect1379" width="1" height="1" x="19" y="9" class="obstacle"></rect><rect id="SvgjsRect1380" width="1" height="1" x="19" y="10" class="obstacle"></rect><rect id="SvgjsRect1381" width="1" height="1" x="19" y="11" class="obstacle"></rect><rect id="SvgjsRect1382" width="1" height="1" x="19" y="12" class="obstacle"></rect><rect id="SvgjsRect1383" width="1" height="1" x="19" y="13" class="obstacle"></rect><rect id="SvgjsRect1384" width="1" height="1" x="19" y="14" class="obstacle"></rect><rect id="SvgjsRect1385" width="1" height="1" x="19" y="15" class="obstacle"></rect><rect id="SvgjsRect1386" width="1" height="1" x="19" y="16" class="obstacle"></rect><rect id="SvgjsRect1387" width="1" height="1" x="19" y="17" class="obstacle"></rect><rect id="SvgjsRect1388" width="1" height="1" x="19" y="18" class="blank"></rect><rect id="SvgjsRect1389" width="1" height="1" x="20" y="0" class="blank"></rect><rect id="SvgjsRect1390" width="1" height="1" x="20" y="1" class="blank"></rect><rect id="SvgjsRect1391" width="1" height="1" x="20" y="2" class="blank"></rect><rect id="SvgjsRect1392" width="1" height="1" x="20" y="3" class="blank"></rect><rect id="SvgjsRect1393" width="1" height="1" x="20" y="4" class="blank"></rect><rect id="SvgjsRect1394" width="1" height="1" x="20" y="5" class="blank"></rect><rect id="SvgjsRect1395" width="1" height="1" x="20" y="6" class="blank"></rect><rect id="SvgjsRect1396" width="1" height="1" x="20" y="7" class="blank"></rect><rect id="SvgjsRect1397" width="1" height="1" x="20" y="8" class="blank"></rect><rect id="SvgjsRect1398" width="1" height="1" x="20" y="9" class="blank"></rect><rect id="SvgjsRect1399" width="1" height="1" x="20" y="10" class="blank"></rect><rect id="SvgjsRect1400" width="1" height="1" x="20" y="11" class="blank"></rect><rect id="SvgjsRect1401" width="1" height="1" x="20" y="12" class="blank"></rect><rect id="SvgjsRect1402" width="1" height="1" x="20" y="13" class="blank"></rect><rect id="SvgjsRect1403" width="1" height="1" x="20" y="14" class="blank"></rect><rect id="SvgjsRect1404" width="1" height="1" x="20" y="15" class="blank"></rect><rect id="SvgjsRect1405" width="1" height="1" x="20" y="16" class="blank"></rect><rect id="SvgjsRect1406" width="1" height="1" x="20" y="17" class="blank"></rect><rect id="SvgjsRect1407" width="1" height="1" x="20" y="18" class="blank"></rect><line id="SvgjsLine1408" x1="0" y1="0" x2="0" y2="19"></line><line id="SvgjsLine1409" x1="1" y1="0" x2="1" y2="19"></line><line id="SvgjsLine1410" x1="2" y1="0" x2="2" y2="19"></line><line id="SvgjsLine1411" x1="3" y1="0" x2="3" y2="19"></line><line id="SvgjsLine1412" x1="4" y1="0" x2="4" y2="19"></line><line id="SvgjsLine1413" x1="5" y1="0" x2="5" y2="19"></line><line id="SvgjsLine1414" x1="6" y1="0" x2="6" y2="19"></line><line id="SvgjsLine1415" x1="7" y1="0" x2="7" y2="19"></line><line id="SvgjsLine1416" x1="8" y1="0" x2="8" y2="19"></line><line id="SvgjsLine1417" x1="9" y1="0" x2="9" y2="19"></line><line id="SvgjsLine1418" x1="10" y1="0" x2="10" y2="19"></line><line id="SvgjsLine1419" x1="11" y1="0" x2="11" y2="19"></line><line id="SvgjsLine1420" x1="12" y1="0" x2="12" y2="19"></line><line id="SvgjsLine1421" x1="13" y1="0" x2="13" y2="19"></line><line id="SvgjsLine1422" x1="14" y1="0" x2="14" y2="19"></line><line id="SvgjsLine1423" x1="15" y1="0" x2="15" y2="19"></line><line id="SvgjsLine1424" x1="16" y1="0" x2="16" y2="19"></line><line id="SvgjsLine1425" x1="17" y1="0" x2="17" y2="19"></line><line id="SvgjsLine1426" x1="18" y1="0" x2="18" y2="19"></line><line id="SvgjsLine1427" x1="19" y1="0" x2="19" y2="19"></line><line id="SvgjsLine1428" x1="20" y1="0" x2="20" y2="19"></line><line id="SvgjsLine1429" x1="21" y1="0" x2="21" y2="19"></line><line id="SvgjsLine1430" x1="0" y1="0" x2="21" y2="0"></line><line id="SvgjsLine1431" x1="0" y1="1" x2="21" y2="1"></line><line id="SvgjsLine1432" x1="0" y1="2" x2="21" y2="2"></line><line id="SvgjsLine1433" x1="0" y1="3" x2="21" y2="3"></line><line id="SvgjsLine1434" x1="0" y1="4" x2="21" y2="4"></line><line id="SvgjsLine1435" x1="0" y1="5" x2="21" y2="5"></line><line id="SvgjsLine1436" x1="0" y1="6" x2="21" y2="6"></line><line id="SvgjsLine1437" x1="0" y1="7" x2="21" y2="7"></line><line id="SvgjsLine1438" x1="0" y1="8" x2="21" y2="8"></line><line id="SvgjsLine1439" x1="0" y1="9" x2="21" y2="9"></line><line id="SvgjsLine1440" x1="0" y1="10" x2="21" y2="10"></line><line id="SvgjsLine1441" x1="0" y1="11" x2="21" y2="11"></line><line id="SvgjsLine1442" x1="0" y1="12" x2="21" y2="12"></line><line id="SvgjsLine1443" x1="0" y1="13" x2="21" y2="13"></line><line id="SvgjsLine1444" x1="0" y1="14" x2="21" y2="14"></line><line id="SvgjsLine1445" x1="0" y1="15" x2="21" y2="15"></line><line id="SvgjsLine1446" x1="0" y1="16" x2="21" y2="16"></line><line id="SvgjsLine1447" x1="0" y1="17" x2="21" y2="17"></line><line id="SvgjsLine1448" x1="0" y1="18" x2="21" y2="18"></line><line id="SvgjsLine1449" x1="0" y1="19" x2="21" y2="19"></line><circle id="SvgjsCircle1450" r="0.5" cx="7.5" cy="9.5" class="ball"></circle><circle id="SvgjsCircle1451" r="0.5" cx="4.5" cy="9.5" class="magnet"></circle></svg>