<svg id="SvgjsSvg1006" width="100%" height="100%" xmlns="http://www.w3.org/2000/svg" version="1.1" xmlns:xlink="http://www.w3.org/1999/xlink" xmlns:svgjs="http://svgjs.com/svgjs" viewBox="-0.15 -0.15 13.3 11.3"><defs id="SvgjsDefs1007"></defs><style id="SvgjsStyle1008">line { stroke: black; stroke-dasharray: 0.1; stroke-width: 0.1; }
.obstacle { fill: purple; }
.blank { fill: white; }

circle { stroke: none; }
.magnet { fill: red; stroke: orange; stroke-opacity: 0.75; stroke-width: 0.3; }
.ball { fill: gray; stroke: #c0c0c0; stroke-opacity: 0.75; stroke-width: 0.3; }

.magnet, .ball {
  animation: pulse 2s linear infinite;
}
@keyframes pulse {
  0% { stroke-opacity: 0.9; }
  50% { stroke-opacity: 0.4; }
  100% { stroke-opacity: 0.9; }
}</style><rect id="SvgjsRect1009" width="1" height="1" x="0" y="0" class="blank"></rect><rect id="SvgjsRect1010" width="1" height="1" x="0" y="1" class="blank"></rect><rect id="SvgjsRect1011" width="1" height="1" x="0" y="2" class="blank"></rect><rect id="SvgjsRect1012" width="1" height="1" x="0" y="3" class="blank"></rect><rect id="SvgjsRect1013" width="1" height="1" x="0" y="4" class="blank"></rect><rect id="SvgjsRect1014" width="1" height="1" x="0" y="5" class="blank"></rect><rect id="SvgjsRect1015" width="1" height="1" x="0" y="6" class="blank"></rect><rect id="SvgjsRect1016" width="1" height="1" x="0" y="7" class="blank"></rect><rect id="SvgjsRect1017" width="1" height="1" x="0" y="8" class="blank"></rect><rect id="SvgjsRect1018" width="1" height="1" x="0" y="9" class="blank"></rect><rect id="SvgjsRect1019" width="1" height="1" x="0" y="10" class="blank"></rect><rect id="SvgjsRect1020" width="1" height="1" x="1" y="0" class="blank"></rect><rect id="SvgjsRect1021" width="1" height="1" x="1" y="1" class="blank"></rect><rect id="SvgjsRect1022" width="1" height="1" x="1" y="2" class="blank"></rect><rect id="SvgjsRect1023" width="1" height="1" x="1" y="3" class="blank"></rect><rect id="SvgjsRect1024" width="1" height="1" x="1" y="4" class="blank"></rect><rect id="SvgjsRect1025" width="1" height="1" x="1" y="5" class="blank"></rect><rect id="SvgjsRect1026" width="1" height="1" x="1" y="6" class="blank"></rect><rect id="SvgjsRect1027" width="1" height="1" x="1" y="7" class="blank"></rect><rect id="SvgjsRect1028" width="1" height="1" x="1" y="8" class="blank"></rect><rect id="SvgjsRect1029" width="1" height="1" x="1" y="9" class="blank"></rect><rect id="SvgjsRect1030" width="1" height="1" x="1" y="10" class="blank"></rect><rect id="SvgjsRect1031" width="1" height="1" x="2" y="0" class="blank"></rect><rect id="SvgjsRect1032" width="1" height="1" x="2" y="1" class="blank"></rect><rect id="SvgjsRect1033" width="1" height="1" x="2" y="2" class="obstacle"></rect><rect id="SvgjsRect1034" width="1" height="1" x="2" y="3" class="obstacle"></rect><rect id="SvgjsRect1035" width="1" height="1" x="2" y="4" class="obstacle"></rect><rect id="SvgjsRect1036" width="1" height="1" x="2" y="5" class="obstacle"></rect><rect id="SvgjsRect1037" width="1" height="1" x="2" y="6" class="obstacle"></rect><rect id="SvgjsRect1038" width="1" height="1" x="2" y="7" class="blank"></rect><rect id="SvgjsRect1039" width="1" height="1" x="2" y="8" class="blank"></rect><rect id="SvgjsRect1040" width="1" height="1" x="2" y="9" class="blank"></rect><rect id="SvgjsRect1041" width="1" height="1" x="2" y="10" class="blank"></rect><rect id="SvgjsRect1042" width="1" height="1" x="3" y="0" class="blank"></rect><rect id="SvgjsRect1043" width="1" height="1" x="3" y="1" class="blank"></rect><rect id="SvgjsRect1044" width="1" height="1" x="3" y="2" class="obstacle"></rect><rect id="SvgjsRect1045" width="1" height="1" x="3" y="3" class="blank"></rect><rect id="SvgjsRect1046" width="1" height="1" x="3" y="4" class="blank"></rect><rect id="SvgjsRect1047" width="1" height="1" x="3" y="5" class="obstacle"></rect><rect id="SvgjsRect1048" width="1" height="1" x="3" y="6" class="obstacle"></rect><rect id="SvgjsRect1049" width="1" height="1" x="3" y="7" class="blank"></rect><rect id="SvgjsRect1050" width="1" height="1" x="3" y="8" class="blank"></rect><rect id="SvgjsRect1051" width="1" height="1" x="3" y="9" class="blank"></rect><rect id="SvgjsRect1052" width="1" height="1" x="3" y="10" class="blank"></rect><rect id="SvgjsRect1053" width="1" height="1" x="4" y="0" class="blank"></rect><rect id="SvgjsRect1054" width="1" height="1" x="4" y="1" class="blank"></rect><rect id="SvgjsRect1055" width="1" height="1" x="4" y="2" class="blank"></rect><rect id="SvgjsRect1056" width="1" height="1" x="4" y="3" class="blank"></rect><rect id="SvgjsRect1057" width="1" height="1" x="4" y="4" class="blank"></rect><rect id="SvgjsRect1058" width="1" height="1" x="4" y="5" class="obstacle"></rect><rect id="SvgjsRect1059" width="1" height="1" x="4" y="6" class="blank"></rect><rect id="SvgjsRect1060" width="1" height="1" x="4" y="7" class="blank"></rect><rect id="SvgjsRect1061" width="1" height="1" x="4" y="8" class="blank"></rect><rect id="SvgjsRect1062" width="1" height="1" x="4" y="9" class="blank"></rect><rect id="SvgjsRect1063" width="1" height="1" x="4" y="10" class="blank"></rect><rect id="SvgjsRect1064" width="1" height="1" x="5" y="0" class="blank"></rect><rect id="SvgjsRect1065" width="1" height="1" x="5" y="1" class="blank"></rect><rect id="SvgjsRect1066" width="1" height="1" x="5" y="2" class="blank"></rect><rect id="SvgjsRect1067" width="1" height="1" x="5" y="3" class="blank"></rect><rect id="SvgjsRect1068" width="1" height="1" x="5" y="4" class="blank"></rect><rect id="SvgjsRect1069" width="1" height="1" x="5" y="5" class="obstacle"></rect><rect id="SvgjsRect1070" width="1" height="1" x="5" y="6" class="blank"></rect><rect id="SvgjsRect1071" width="1" height="1" x="5" y="7" class="blank"></rect><rect id="SvgjsRect1072" width="1" height="1" x="5" y="8" class="blank"></rect><rect id="SvgjsRect1073" width="1" height="1" x="5" y="9" class="blank"></rect><rect id="SvgjsRect1074" width="1" height="1" x="5" y="10" class="blank"></rect><rect id="SvgjsRect1075" width="1" height="1" x="6" y="0" class="blank"></rect><rect id="SvgjsRect1076" width="1" height="1" x="6" y="1" class="blank"></rect><rect id="SvgjsRect1077" width="1" height="1" x="6" y="2" class="blank"></rect><rect id="SvgjsRect1078" width="1" height="1" x="6" y="3" class="blank"></rect><rect id="SvgjsRect1079" width="1" height="1" x="6" y="4" class="blank"></rect><rect id="SvgjsRect1080" width="1" height="1" x="6" y="5" class="obstacle"></rect><rect id="SvgjsRect1081" width="1" height="1" x="6" y="6" class="blank"></rect><rect id="SvgjsRect1082" width="1" height="1" x="6" y="7" class="blank"></rect><rect id="SvgjsRect1083" width="1" height="1" x="6" y="8" class="blank"></rect><rect id="SvgjsRect1084" width="1" height="1" x="6" y="9" class="blank"></rect><rect id="SvgjsRect1085" width="1" height="1" x="6" y="10" class="blank"></rect><rect id="SvgjsRect1086" width="1" height="1" x="7" y="0" class="blank"></rect><rect id="SvgjsRect1087" width="1" height="1" x="7" y="1" class="blank"></rect><rect id="SvgjsRect1088" width="1" height="1" x="7" y="2" class="blank"></rect><rect id="SvgjsRect1089" width="1" height="1" x="7" y="3" class="blank"></rect><rect id="SvgjsRect1090" width="1" height="1" x="7" y="4" class="blank"></rect><rect id="SvgjsRect1091" width="1" height="1" x="7" y="5" class="obstacle"></rect><rect id="SvgjsRect1092" width="1" height="1" x="7" y="6" class="blank"></rect><rect id="SvgjsRect1093" width="1" height="1" x="7" y="7" class="blank"></rect><rect id="SvgjsRect1094" width="1" height="1" x="7" y="8" class="blank"></rect><rect id="SvgjsRect1095" width="1" height="1" x="7" y="9" class="blank"></rect><rect id="SvgjsRect1096" width="1" height="1" x="7" y="10" class="blank"></rect><rect id="SvgjsRect1097" width="1" height="1" x="8" y="0" class="blank"></rect><rect id="SvgjsRect1098" width="1" height="1" x="8" y="1" class="blank"></rect><rect id="SvgjsRect1099" width="1" height="1" x="8" y="2" class="blank"></rect><rect id="SvgjsRect1100" width="1" height="1" x="8" y="3" class="blank"></rect><rect id="SvgjsRect1101" width="1" height="1" x="8" y="4" class="blank"></rect><rect id="SvgjsRect1102" width="1" height="1" x="8" y="5" class="obstacle"></rect><rect id="SvgjsRect1103" width="1" height="1" x="8" y="6" class="blank"></rect><rect id="SvgjsRect1104" width="1" height="1" x="8" y="7" class="blank"></rect><rect id="SvgjsRect1105" width="1" height="1" x="8" y="8" class="blank"></rect><rect id="SvgjsRect1106" width="1" height="1" x="8" y="9" class="blank"></rect><rect id="SvgjsRect1107" width="1" height="1" x="8" y="10" class="blank"></rect><rect id="SvgjsRect1108" width="1" height="1" x="9" y="0" class="blank"></rect><rect id="SvgjsRect1109" width="1" height="1" x="9" y="1" class="blank"></rect><rect id="SvgjsRect1110" width="1" height="1" x="9" y="2" class="blank"></rect><rect id="SvgjsRect1111" width="1" height="1" x="9" y="3" class="blank"></rect><rect id="SvgjsRect1112" width="1" height="1" x="9" y="4" class="obstacle"></rect><rect id="SvgjsRect1113" width="1" height="1" x="9" y="5" class="obstacle"></rect><rect id="SvgjsRect1114" width="1" height="1" x="9" y="6" class="blank"></rect><rect id="SvgjsRect1115" width="1" height="1" x="9" y="7" class="blank"></rect><rect id="SvgjsRect1116" width="1" height="1" x="9" y="8" class="obstacle"></rect><rect id="SvgjsRect1117" width="1" height="1" x="9" y="9" class="blank"></rect><rect id="SvgjsRect1118" width="1" height="1" x="9" y="10" class="blank"></rect><rect id="SvgjsRect1119" width="1" height="1" x="10" y="0" class="blank"></rect><rect id="SvgjsRect1120" width="1" height="1" x="10" y="1" class="blank"></rect><rect id="SvgjsRect1121" width="1" height="1" x="10" y="2" class="blank"></rect><rect id="SvgjsRect1122" width="1" height="1" x="10" y="3" class="blank"></rect><rect id="SvgjsRect1123" width="1" height="1" x="10" y="4" class="obstacle"></rect><rect id="SvgjsRect1124" width="1" height="1" x="10" y="5" class="obstacle"></rect><rect id="SvgjsRect1125" width="1" height="1" x="10" y="6" class="obstacle"></rect><rect id="SvgjsRect1126" width="1" height="1" x="10" y="7" class="obstacle"></rect><rect id="SvgjsRect1127" width="1" height="1" x="10" y="8" class="obstacle"></rect><rect id="SvgjsRect1128" width="1" height="1" x="10" y="9" class="blank"></rect><rect id="SvgjsRect1129" width="1" height="1" x="10" y="10" class="blank"></rect><rect id="SvgjsRect1130" width="1" height="1" x="11" y="0" class="blank"></rect><rect id="SvgjsRect1131" width="1" height="1" x="11" y="1" class="blank"></rect><rect id="SvgjsRect1132" width="1" height="1" x="11" y="2" class="blank"></rect><rect id="SvgjsRect1133" width="1" height="1" x="11" y="3" class="blank"></rect><rect id="SvgjsRect1134" width="1" height="1" x="11" y="4" class="blank"></rect><rect id="SvgjsRect1135" width="1" height="1" x="11" y="5" class="blank"></rect><rect id="SvgjsRect1136" width="1" height="1" x="11" y="6" class="blank"></rect><rect id="SvgjsRect1137" width="1" height="1" x="11" y="7" class="blank"></rect><rect id="SvgjsRect1138" width="1" height="1" x="11" y="8" class="blank"></rect><rect id="SvgjsRect1139" width="1" height="1" x="11" y="9" class="blank"></rect><rect id="SvgjsRect1140" width="1" height="1" x="11" y="10" class="blank"></rect><rect id="SvgjsRect1141" width="1" height="1" x="12" y="0" class="blank"></rect><rect id="SvgjsRect1142" width="1" height="1" x="12" y="1" class="blank"></rect><rect id="SvgjsRect1143" width="1" height="1" x="12" y="2" class="blank"></rect><rect id="SvgjsRect1144" width="1" height="1" x="12" y="3" class="blank"></rect><rect id="SvgjsRect1145" width="1" height="1" x="12" y="4" class="blank"></rect><rect id="SvgjsRect1146" width="1" height="1" x="12" y="5" class="blank"></rect><rect id="SvgjsRect1147" width="1" height="1" x="12" y="6" class="blank"></rect><rect id="SvgjsRect1148" width="1" height="1" x="12" y="7" class="blank"></rect><rect id="SvgjsRect1149" width="1" height="1" x="12" y="8" class="blank"></rect><rect id="SvgjsRect1150" width="1" height="1" x="12" y="9" class="blank"></rect><rect id="SvgjsRect1151" width="1" height="1" x="12" y="10" class="blank"></rect><line id="SvgjsLine1152" x1="0" y1="0" x2="0" y2="11"></line><line id="SvgjsLine1153" x1="1" y1="0" x2="1" y2="11"></line><line id="SvgjsLine1154" x1="2" y1="0" x2="2" y2="11"></line><line id="SvgjsLine1155" x1="3" y1="0" x2="3" y2="11"></line><line id="SvgjsLine1156" x1="4" y1="0" x2="4" y2="11"></line><line id="SvgjsLine1157" x1="5" y1="0" x2="5" y2="11"></line><line id="SvgjsLine1158" x1="6" y1="0" x2="6" y2="11"></line><line id="SvgjsLine1159" x1="7" y1="0" x2="7" y2="11"></line><line id="SvgjsLine1160" x1="8" y1="0" x2="8" y2="11"></line><line id="SvgjsLine1161" x1="9" y1="0" x2="9" y2="11"></line><line id="SvgjsLine1162" x1="10" y1="0" x2="10" y2="11"></line><line id="SvgjsLine1163" x1="11" y1="0" x2="11" y2="11"></line><line id="SvgjsLine1164" x1="12" y1="0" x2="12" y2="11"></line><line id="SvgjsLine1165" x1="13" y1="0" x2="13" y2="11"></line><line id="SvgjsLine1166" x1="0" y1="0" x2="13" y2="0"></line><line id="SvgjsLine1167" x1="0" y1="1" x2="13" y2="1"></line><line id="SvgjsLine1168" x1="0" y1="2" x2="13" y2="2"></line><line id="SvgjsLine1169" x1="0" y1="3" x2="13" y2="3"></line><line id="SvgjsLine1170" x1="0" y1="4" x2="13" y2="4"></line><line id="SvgjsLine1171" x1="0" y1="5" x2="13" y2="5"></line><line id="SvgjsLine1172" x1="0" y1="6" x2="13" y2="6"></line><line id="SvgjsLine1173" x1="0" y1="7" x2="13" y2="7"></line><line id="SvgjsLine1174" x1="0" y1="8" x2="13" y2="8"></line><line id="SvgjsLine1175" x1="0" y1="9" x2="13" y2="9"></line><line id="SvgjsLine1176" x1="0" y1="10" x2="13" y2="10"></line><line id="SvgjsLine1177" x1="0" y1="11" x2="13" y2="11"></line><circle id="SvgjsCircle1178" r="0.5" cx="2.5" cy="5.5" class="ball"></circle><circle id="SvgjsCircle1179" r="0.5" cx="0.5" cy="5.5" class="magnet"></circle></svg>